<svg id="Layer_1" data-name="Layer 1" xmlns="http://www.w3.org/2000/svg" viewBox="0 0 400 400"><defs><style>.cls-1{fill:none;stroke-width:13px;}.cls-1,.cls-2{stroke:#000;stroke-miterlimit:10;}.cls-2{stroke-width:17px;}</style></defs><title>harness</title><path class="cls-1" d="M201.37,127.47s85.77,13.83,39.43,51.19c-6.62,5.34-15.94,11.15-28.59,17.48C111,246.73,78.78,290.93,103.79,308.17c36.81,25.37,187.92-39.75,187.92-39.75"/><path class="cls-1" d="M362.32,273.75l-56.63,18a6.33,6.33,0,0,1-7.55-3.14l-19.26-37.46a6.33,6.33,0,0,1,3.71-8.93l56.63-18a6.33,6.33,0,0,1,7.55,3.14L366,264.82A6.33,6.33,0,0,1,362.32,273.75Z"/><path class="cls-1" d="M187.48,155.54l-54.16-24.75a6.27,6.27,0,0,1-3.45-7.33l10.94-40.8a6.27,6.27,0,0,1,8.67-4.08l54.16,24.75a6.27,6.27,0,0,1,3.45,7.33l-10.94,40.8A6.27,6.27,0,0,1,187.48,155.54Z"/><path class="cls-1" d="M129.74,172.21s-2.33,10.85-17.12,44.57c-25.1,57.21-82.94,35.8-74.38-2.48s101.41,26.86,101.41,26.86"/><rect class="cls-2" x="121.15" y="162.25" width="17.26" height="31.38" rx="2.71" ry="2.71" transform="translate(78.09 -36.15) rotate(22.53)"/></svg>