<svg id="Layer_1" data-name="Layer 1" xmlns="http://www.w3.org/2000/svg" viewBox="0 0 400 400"><title>settings</title><path d="M192.52,361a26.78,26.78,0,0,1-26.75-26.75v-10l-2.78-.89a131.18,131.18,0,0,1-20.32-8.43l-2.6-1.34L133,320.67a26.75,26.75,0,0,1-37.83,0L80.33,305.85a26.74,26.74,0,0,1,0-37.83l7.09-7.09-1.34-2.6A131.19,131.19,0,0,1,77.65,238l-.89-2.78h-10A26.78,26.78,0,0,1,40,208.48v-21a26.78,26.78,0,0,1,26.75-26.75h10l.89-2.78a131.36,131.36,0,0,1,8.43-20.32l1.34-2.6L80.33,128a26.75,26.75,0,0,1,0-37.83L95.15,75.33a26.74,26.74,0,0,1,37.83,0l7.09,7.09,2.6-1.34A131.31,131.31,0,0,1,163,72.65l2.78-.89v-10A26.78,26.78,0,0,1,192.52,35h21a26.78,26.78,0,0,1,26.75,26.75v10l2.78.89a131.26,131.26,0,0,1,20.32,8.43l2.6,1.34L273,75.33a26.75,26.75,0,0,1,37.83,0l14.82,14.82a26.75,26.75,0,0,1,0,37.83l-7.09,7.09,1.34,2.6A131.21,131.21,0,0,1,328.35,158l.89,2.78h10A26.78,26.78,0,0,1,366,187.52v21a26.78,26.78,0,0,1-26.75,26.75h-10l-.89,2.78a131.14,131.14,0,0,1-8.43,20.32l-1.34,2.6,7.09,7.09a26.74,26.74,0,0,1,0,37.83l-14.82,14.82a26.75,26.75,0,0,1-37.83,0l-7.09-7.09-2.6,1.34A131.35,131.35,0,0,1,243,323.35l-2.78.89v10A26.78,26.78,0,0,1,213.48,361Zm-53.31-60.45a5.56,5.56,0,0,1,2.86.82A119.33,119.33,0,0,0,173,314.2a5.78,5.78,0,0,1,4.34,5.6v14.45a15.19,15.19,0,0,0,15.18,15.18h21a15.19,15.19,0,0,0,15.18-15.18V319.8a5.78,5.78,0,0,1,4.34-5.6,119.34,119.34,0,0,0,30.93-12.84,5.78,5.78,0,0,1,7,.89l10.23,10.24a15.17,15.17,0,0,0,21.46,0l14.82-14.82a15.17,15.17,0,0,0,0-21.46L307.25,266a5.78,5.78,0,0,1-.89-7A119.32,119.32,0,0,0,319.2,228a5.78,5.78,0,0,1,5.6-4.34h14.45a15.19,15.19,0,0,0,15.18-15.18v-21a15.19,15.19,0,0,0-15.18-15.18H324.81a5.78,5.78,0,0,1-5.6-4.34,119.4,119.4,0,0,0-12.84-30.93,5.78,5.78,0,0,1,.89-7l10.23-10.23a15.17,15.17,0,0,0,0-21.46L302.67,83.52a15.17,15.17,0,0,0-21.46,0L271,93.75a5.78,5.78,0,0,1-7,.89A119.35,119.35,0,0,0,233,81.8a5.78,5.78,0,0,1-4.34-5.6V61.75a15.19,15.19,0,0,0-15.18-15.18h-21a15.19,15.19,0,0,0-15.18,15.18V76.19A5.78,5.78,0,0,1,173,81.8a119.34,119.34,0,0,0-30.93,12.84,5.79,5.79,0,0,1-7-.89L124.8,83.51a15.17,15.17,0,0,0-21.46,0L88.51,98.33a15.17,15.17,0,0,0,0,21.46L98.75,130a5.78,5.78,0,0,1,.89,7A119.31,119.31,0,0,0,86.8,168a5.78,5.78,0,0,1-5.6,4.34H66.75a15.2,15.2,0,0,0-15.18,15.18v21a15.19,15.19,0,0,0,15.18,15.18H81.19A5.78,5.78,0,0,1,86.8,228a119.34,119.34,0,0,0,12.84,30.93,5.78,5.78,0,0,1-.89,7L88.51,276.2a15.17,15.17,0,0,0,0,21.46l14.82,14.82a15.09,15.09,0,0,0,10.75,4.45h0a15,15,0,0,0,10.71-4.45L135,302.25A6.2,6.2,0,0,1,139.21,300.55Z"/><path d="M203,266.67A68.67,68.67,0,1,1,271.67,198,68.75,68.75,0,0,1,203,266.67Zm0-125.77A57.1,57.1,0,1,0,260.1,198,57.17,57.17,0,0,0,203,140.9Z"/></svg>