<svg id="Layer_1" data-name="Layer 1" xmlns="http://www.w3.org/2000/svg" viewBox="0 0 400 400"><defs><style>.cls-1,.cls-2{fill:none;}.cls-2{stroke:#000;stroke-miterlimit:10;stroke-width:10px;}</style></defs><title>speaker</title><rect class="cls-1" x="204.42" y="165.27" width="20.41" height="20.41" transform="translate(-46.8 83.23) rotate(-19.83)"/><rect class="cls-1" x="139.28" y="216.65" width="20.41" height="20.41" transform="translate(-68.1 64.18) rotate(-19.83)"/><path class="cls-1" d="M226.86,216l-7.5,2.7,2.7,7.49A66,66,0,0,0,226.86,216Z"/><path class="cls-1" d="M210.47,194l6.92,19.2L229,209a65.38,65.38,0,0,0,1.88-18.48l-1.24-3.45Z"/><rect class="cls-1" x="172.86" y="232.43" width="20.41" height="20.41" transform="translate(-71.47 76.51) rotate(-19.83)"/><path class="cls-1" d="M120.06,192.53l-6.92-19.2-11.61,4.19a65.37,65.37,0,0,0-1.86,18.62l1.19,3.31Z"/><path class="cls-1" d="M192.66,144.65l6.92,19.2,19.2-6.92-1.26-3.5a65.37,65.37,0,0,0-13.18-13Z"/><rect class="cls-1" x="130.38" y="191.97" width="20.41" height="20.41" transform="translate(-60.26 59.69) rotate(-19.83)"/><rect class="cls-1" x="137.25" y="133.71" width="20.41" height="20.41" transform="translate(-40.08 58.57) rotate(-19.83)"/><path class="cls-1" d="M103.67,170.55l7.48-2.7-2.7-7.49A66,66,0,0,0,103.67,170.55Z"/><path class="cls-1" d="M213.88,220.67l-19.2,6.92,6.92,19.2,3.32-1.2a65.37,65.37,0,0,0,13.14-13.31Z"/><rect class="cls-1" x="105.7" y="200.88" width="20.41" height="20.41" transform="translate(-64.74 51.85) rotate(-19.83)"/><path class="cls-1" d="M188,131.62l2.72,7.55,7.55-2.72A66.05,66.05,0,0,0,188,131.62Z"/><path class="cls-1" d="M116.64,165.88l19.2-6.92-6.92-19.2L125.48,141a65.38,65.38,0,0,0-13,13.25Z"/><path class="cls-1" d="M132.45,250a66.13,66.13,0,0,0,10.05,4.72l-2.66-7.39Z"/><path class="cls-1" d="M137.86,241.9l-6.92-19.2-19.2,6.92,1.15,3.18a65.46,65.46,0,0,0,13.44,13.25Z"/><rect class="cls-1" x="155.06" y="183.07" width="20.41" height="20.41" transform="translate(-55.77 67.54) rotate(-19.83)"/><path class="cls-1" d="M166,148.07l19.2-6.92L181,129.48a65.38,65.38,0,0,0-18.41-1.86l-3.5,1.26Z"/><path class="cls-1" d="M164.52,238.48l-19.2,6.92,4.16,11.53a65.46,65.46,0,0,0,18.77,1.89l3.19-1.15Z"/><rect class="cls-1" x="179.74" y="174.17" width="20.41" height="20.41" transform="translate(-51.29 75.38) rotate(-19.83)"/><rect class="cls-1" x="163.96" y="207.75" width="20.41" height="20.41" transform="translate(-63.62 72.02) rotate(-19.83)"/><rect class="cls-1" x="146.16" y="158.39" width="20.41" height="20.41" transform="translate(-47.93 63.05) rotate(-19.83)"/><rect class="cls-1" x="121.48" y="167.29" width="20.41" height="20.41" transform="translate(-52.41 55.21) rotate(-19.83)"/><rect class="cls-1" x="188.64" y="198.85" width="20.41" height="20.41" transform="translate(-59.14 79.87) rotate(-19.83)"/><rect class="cls-1" x="170.84" y="149.49" width="20.41" height="20.41" transform="translate(-43.44 70.9) rotate(-19.83)"/><path d="M126.33,246.05a65.46,65.46,0,0,1-13.44-13.25l4.95,13.71c.7.62,1.4,1.24,2.13,1.83Z"/><path d="M204.33,140.44a65.37,65.37,0,0,1,13.18,13L212.69,140c-.7-.62-1.4-1.24-2.13-1.84Z"/><path d="M112.45,154.25a65.38,65.38,0,0,1,13-13.25L112,145.85c-.62.7-1.24,1.4-1.84,2.13Z"/><path d="M218.07,232.28a65.37,65.37,0,0,1-13.14,13.31l13.62-4.91q.91-1,1.78-2.1Z"/><path d="M235.3,206.75c.18-.91.32-1.83.46-2.75l-4.86-13.46A65.38,65.38,0,0,1,229,209Z"/><path d="M178.74,123.24c-.92-.18-1.83-.32-2.75-.46l-13.41,4.84A65.38,65.38,0,0,1,181,129.48Z"/><path d="M95.22,179.8c-.18.91-.32,1.83-.46,2.75l4.9,13.6a65.37,65.37,0,0,1,1.86-18.62Z"/><path d="M224.54,154.85l2,5.48-.27.1,6.92,19.2.27-.1,2,5.48-.27.1,1.26,3.5A71.55,71.55,0,0,0,223,151.38l1.29,3.56Z"/><path d="M151.77,263.27c.92.18,1.84.36,2.77.5l13.72-4.95a65.46,65.46,0,0,1-18.77-1.89Z"/><path d="M222.07,226.18l2.44,6.77c.67-1,1.32-2,1.93-3.06a71.44,71.44,0,0,0,7.2-16.35L226.86,216A66,66,0,0,1,222.07,226.18Z"/><path d="M198.23,136.45l6.71-2.42q-1.49-1-3.05-1.93a71.43,71.43,0,0,0-16.35-7.2l2.43,6.72A66.05,66.05,0,0,1,198.23,136.45Z"/><path d="M126.84,134l5.48-2,.1.27,19.2-6.92-.1-.27,5.48-2,.1.27,3.49-1.26a71.55,71.55,0,0,0-37.22,13.43l3.56-1.29Z"/><path d="M106,231.7l-2-5.48.27-.1-6.92-19.2-.27.1-2-5.48.27-.1-1.26-3.5a71.55,71.55,0,0,0,13.43,37.23l-1.29-3.57Z"/><path d="M108.45,160.36,106,153.6q-1,1.49-1.93,3.05A71.44,71.44,0,0,0,96.88,173l6.79-2.45A66,66,0,0,1,108.45,160.36Z"/><path d="M132.45,250l-6.87,2.48q1.5,1,3.05,1.93A71.23,71.23,0,0,0,145,261.61l-2.47-6.84A66.13,66.13,0,0,1,132.45,250Z"/><path d="M203.69,252.55l-5.48,2-.1-.27-19.2,6.92.1.27-5.48,2-.1-.27-3.51,1.27a71.26,71.26,0,0,0,19.58-4.09A70.51,70.51,0,0,0,207.22,251l-3.63,1.31Z"/><path d="M128.56,138.79q-1.58,1.06-3.08,2.21l3.43-1.24Z"/><path d="M162.58,127.61c-1.28.05-2.57.15-3.86.28l.35,1Z"/><path d="M158.72,127.89c1.29-.13,2.57-.23,3.86-.28L176,122.78a71.12,71.12,0,0,0-15.39-.65l-3.49,1.26Z"/><path d="M143,131.46a66.14,66.14,0,0,1,9.82-2.71l-1.22-3.39-19.2,6.92,1.23,3.4A66.14,66.14,0,0,1,143,131.46Z"/><path d="M125.48,141q1.5-1.15,3.08-2.21l-1.63-4.52-3.56,1.29A70.77,70.77,0,0,0,112,145.85Z"/><rect x="117.02" y="162.24" width="20.41" height="5.83" transform="translate(-48.49 52.97) rotate(-19.83)"/><path d="M103.67,170.55a65.87,65.87,0,0,0-2.14,7l11.61-4.19-2-5.48Z"/><path d="M190.68,139.17l2,5.48,11.67-4.21a65.89,65.89,0,0,0-6.1-4Z"/><rect x="141.71" y="153.34" width="20.41" height="5.83" transform="translate(-44.01 60.81) rotate(-19.83)"/><rect x="166.39" y="144.44" width="20.41" height="5.83" transform="translate(-39.52 68.66) rotate(-19.83)"/><path d="M96.88,173q-1,3.37-1.66,6.8l6.3-2.27a65.87,65.87,0,0,1,2.14-7Z"/><path d="M204.33,140.44l6.22-2.24q-2.68-2.2-5.62-4.17l-6.71,2.42A65.89,65.89,0,0,1,204.33,140.44Z"/><rect x="150.61" y="178.02" width="20.41" height="5.83" transform="translate(-51.85 65.3) rotate(-19.83)"/><rect x="175.29" y="169.12" width="20.41" height="5.83" transform="translate(-47.37 73.14) rotate(-19.83)"/><rect x="101.25" y="195.82" width="20.41" height="5.83" transform="translate(-60.82 49.6) rotate(-19.83)"/><rect x="125.93" y="186.92" width="20.41" height="5.83" transform="translate(-56.34 57.45) rotate(-19.83)"/><rect x="199.97" y="160.21" width="20.41" height="5.83" transform="translate(-42.88 80.99) rotate(-19.83)"/><rect x="96.08" y="201.31" width="0.29" height="5.83" transform="translate(-63.59 44.77) rotate(-19.83)"/><rect x="225.25" y="154.72" width="0.29" height="5.83" transform="translate(-40.12 85.83) rotate(-19.83)"/><rect x="159.51" y="202.7" width="20.41" height="5.83" transform="translate(-59.7 69.78) rotate(-19.83)"/><rect x="110.15" y="220.5" width="20.41" height="5.83" transform="translate(-68.67 54.09) rotate(-19.83)"/><rect x="184.19" y="193.8" width="20.41" height="5.83" transform="matrix(0.94, -0.34, 0.34, 0.94, -55.21, 77.63)"/><rect x="208.87" y="184.89" width="20.41" height="5.83" transform="matrix(0.94, -0.34, 0.34, 0.94, -50.73, 85.47)"/><rect x="134.83" y="211.6" width="20.41" height="5.83" transform="translate(-64.18 61.93) rotate(-19.83)"/><rect x="104.99" y="225.99" width="0.29" height="5.83" transform="translate(-71.43 49.25) rotate(-19.83)"/><rect x="234.15" y="179.41" width="0.29" height="5.83" transform="translate(-47.96 90.31) rotate(-19.83)"/><path d="M139.84,247.38l-2-5.48-11.53,4.16a66,66,0,0,0,6.12,4Z"/><rect x="193.09" y="218.48" width="20.41" height="5.83" transform="translate(-63.06 82.11) rotate(-19.83)"/><path d="M226.86,216a65.87,65.87,0,0,0,2.16-7l-11.63,4.2,2,5.48Z"/><rect x="143.73" y="236.28" width="20.41" height="5.83" transform="translate(-72.03 66.42) rotate(-19.83)"/><rect x="168.41" y="227.38" width="20.41" height="5.83" transform="translate(-67.54 74.27) rotate(-19.83)"/><path d="M126.33,246.05l-6.37,2.3q2.68,2.2,5.62,4.17l6.87-2.48A66,66,0,0,1,126.33,246.05Z"/><path d="M233.64,213.55q1-3.37,1.66-6.8L229,209a65.87,65.87,0,0,1-2.16,7Z"/><path d="M201.94,247.72c1-.68,2-1.39,3-2.12l-3.32,1.2Z"/><path d="M168.26,258.82c1.17-.05,2.34-.14,3.51-.26l-.32-.89Z"/><path d="M187.57,255a66.22,66.22,0,0,1-9.92,2.71l1.25,3.47,19.2-6.92-1.24-3.45A66.14,66.14,0,0,1,187.57,255Z"/><path d="M204.93,245.59c-1,.74-2,1.44-3,2.12l1.65,4.56,3.63-1.31a70.53,70.53,0,0,0,11.34-10.29Z"/><path d="M171.77,258.56c-1.17.12-2.34.21-3.51.26l-13.72,4.95a71.33,71.33,0,0,0,15.37.65l3.51-1.27Z"/><path d="M230.9,190.54q-.08-1.9-.27-3.8l-1,.35Z"/><path d="M219.77,156.57q-1.08-1.61-2.25-3.15l1.26,3.5Z"/><path d="M230.63,186.74q.19,1.9.27,3.8L235.76,204a71.12,71.12,0,0,0,.65-15.39l-1.26-3.5Z"/><path d="M217.52,153.42q1.17,1.53,2.25,3.15l4.5-1.62L223,151.38A70.77,70.77,0,0,0,212.69,140Z"/><path d="M227.06,171a66.13,66.13,0,0,1,2.72,9.89l3.39-1.22-6.92-19.2-3.38,1.22A66.15,66.15,0,0,1,227.06,171Z"/><path d="M220.76,162.41l2.1-.76q-1.44-2.63-3.09-5.08l-1,.36Z"/><path d="M226.24,160.43l-2-5.48-4.5,1.62q1.65,2.45,3.09,5.08Z"/><path d="M227.68,181.61l2,5.48,1-.35q-.29-2.94-.86-5.89Z"/><path d="M230.63,186.74l4.51-1.63-2-5.48-3.39,1.22Q230.34,183.8,230.63,186.74Z"/><rect x="208.27" y="194.4" width="5.83" height="20.41" transform="translate(-56.89 83.79) rotate(-19.83)"/><rect x="190.47" y="145.04" width="5.83" height="20.41" transform="translate(-41.2 74.82) rotate(-19.83)"/><path d="M188,131.62a65.91,65.91,0,0,0-7-2.14l4.21,11.67,5.48-2Z"/><path d="M219.37,218.69l-5.48,2,4.19,11.61a65.9,65.9,0,0,0,4-6.1Z"/><rect x="199.37" y="169.72" width="5.83" height="20.41" transform="translate(-49.05 79.31) rotate(-19.83)"/><path d="M185.53,124.9q-3.37-1-6.8-1.66l2.25,6.24a65.91,65.91,0,0,1,7,2.14Z"/><path d="M218.07,232.28l2.27,6.3q2.21-2.7,4.17-5.63l-2.44-6.77A65.9,65.9,0,0,1,218.07,232.28Z"/><rect x="186.01" y="139.98" width="5.83" height="5.83" transform="translate(-37.28 72.58) rotate(-19.83)"/><rect x="194.92" y="164.67" width="5.83" height="5.83" transform="translate(-45.12 77.06) rotate(-19.83)"/><rect x="203.82" y="189.35" width="5.83" height="5.83" transform="translate(-52.97 81.55) rotate(-19.83)"/><rect x="212.72" y="214.03" width="5.83" height="5.83" transform="translate(-60.82 86.03) rotate(-19.83)"/><rect x="192.49" y="227.98" width="5.83" height="20.41" transform="translate(-69.22 80.43) rotate(-19.83)"/><rect x="174.69" y="178.62" width="5.83" height="20.41" transform="translate(-53.53 71.46) rotate(-19.83)"/><rect x="183.59" y="203.3" width="5.83" height="20.41" transform="translate(-61.38 75.95) rotate(-19.83)"/><rect x="165.78" y="153.94" width="5.83" height="20.41" transform="translate(-45.69 66.98) rotate(-19.83)"/><rect x="156.88" y="129.26" width="5.83" height="20.41" transform="translate(-37.84 62.49) rotate(-19.83)"/><rect x="197.98" y="253.26" width="5.83" height="0.29" transform="translate(-74.06 83.2) rotate(-19.83)"/><rect x="151.39" y="124.1" width="5.83" height="0.29" transform="translate(-33 59.73) rotate(-19.83)"/><path d="M153.59,130.85l5.48-2-.35-1c-2,.2-3.93.48-5.89.86Z"/><path d="M158.72,127.89l-1.62-4.5-5.48,2,1.22,3.39C154.8,128.37,156.76,128.09,158.72,127.89Z"/><rect x="161.33" y="148.89" width="5.83" height="5.83" transform="translate(-41.76 64.73) rotate(-19.83)"/><rect x="170.24" y="173.57" width="5.83" height="5.83" transform="translate(-49.61 69.22) rotate(-19.83)"/><rect x="179.14" y="198.25" width="5.83" height="5.83" transform="translate(-57.45 73.7) rotate(-19.83)"/><rect x="188.04" y="222.93" width="5.83" height="5.83" transform="translate(-65.3 78.19) rotate(-19.83)"/><path d="M196.13,248.77l.74,2q2.63-1.44,5.08-3.09l-.33-.92Z"/><path d="M198.1,254.26l5.48-2-1.65-4.56q-2.45,1.65-5.08,3.09Z"/><rect x="158.91" y="212.2" width="5.83" height="20.41" transform="translate(-65.86 68.1) rotate(-19.83)"/><rect x="150.01" y="187.52" width="5.83" height="20.41" transform="translate(-58.02 63.62) rotate(-19.83)"/><rect x="167.81" y="236.88" width="5.83" height="20.41" transform="translate(-73.71 72.58) rotate(-19.83)"/><rect x="132.2" y="138.16" width="5.83" height="20.41" transform="translate(-42.32 54.65) rotate(-19.83)"/><rect x="141.1" y="162.84" width="5.83" height="20.41" transform="translate(-50.17 59.13) rotate(-19.83)"/><rect x="126.71" y="133" width="5.83" height="0.29" transform="translate(-37.49 51.88) rotate(-19.83)"/><rect x="173.3" y="262.16" width="5.83" height="0.29" transform="translate(-78.55 75.35) rotate(-19.83)"/><path d="M134.4,137.78l-.75-2.09q-2.63,1.44-5.08,3.1l.35,1Z"/><path d="M132.42,132.29l-5.48,2,1.63,4.52q2.45-1.65,5.08-3.1Z"/><rect x="136.65" y="157.79" width="5.83" height="5.83" transform="translate(-46.25 56.89) rotate(-19.83)"/><rect x="145.56" y="182.47" width="5.83" height="5.83" transform="translate(-54.09 61.37) rotate(-19.83)"/><rect x="154.46" y="207.15" width="5.83" height="5.83" transform="translate(-61.94 65.86) rotate(-19.83)"/><rect x="163.36" y="231.83" width="5.83" height="5.83" transform="translate(-69.79 70.34) rotate(-19.83)"/><path d="M176.93,255.7l-5.48,2,.32.89q2.94-.29,5.89-.85Z"/><path d="M171.77,258.56l1.66,4.59,5.48-2-1.25-3.47Q174.71,258.28,171.77,258.56Z"/><rect x="125.33" y="196.42" width="5.83" height="20.41" transform="translate(-62.5 55.77) rotate(-19.83)"/><path d="M142.51,254.77a66,66,0,0,0,7,2.17l-4.16-11.53-5.48,2Z"/><rect x="134.23" y="221.1" width="5.83" height="20.41" transform="translate(-70.35 60.25) rotate(-19.83)"/><path d="M111.16,167.85l5.48-2-4.19-11.63a65.9,65.9,0,0,0-4,6.12Z"/><rect x="116.42" y="171.74" width="5.83" height="20.41" transform="translate(-54.65 51.28) rotate(-19.83)"/><path d="M112.45,154.25,110.19,148q-2.2,2.68-4.17,5.62l2.44,6.76A65.9,65.9,0,0,1,112.45,154.25Z"/><path d="M142.51,254.77l2.47,6.84q3.36,1,6.8,1.67l-2.29-6.34A66,66,0,0,1,142.51,254.77Z"/><rect x="111.97" y="166.69" width="5.83" height="5.83" transform="translate(-50.73 49.04) rotate(-19.83)"/><rect x="120.87" y="191.37" width="5.83" height="5.83" transform="translate(-58.58 53.53) rotate(-19.83)"/><rect x="129.78" y="216.05" width="5.83" height="5.83" transform="translate(-66.42 58.01) rotate(-19.83)"/><rect x="138.68" y="240.73" width="5.83" height="5.83" transform="translate(-74.27 62.5) rotate(-19.83)"/><path d="M110.85,229.94c.66,1,1.33,1.93,2,2.86l-1.15-3.18Z"/><path d="M99.67,196.15c.05,1.21.15,2.43.27,3.64l.92-.33Z"/><path d="M99.94,199.79c-.12-1.22-.22-2.43-.27-3.64l-4.9-13.6a71.13,71.13,0,0,0-.65,15.39l1.26,3.5Z"/><path d="M103.51,215.5a66.14,66.14,0,0,1-2.71-9.82l-3.45,1.24,6.92,19.2,3.47-1.25A66.21,66.21,0,0,1,103.51,215.5Z"/><path d="M112.89,232.8c-.7-.93-1.38-1.89-2-2.86l-4.6,1.66,1.29,3.57a70.77,70.77,0,0,0,10.29,11.35Z"/><path d="M102.84,204.94l-2-5.48-.92.33c.2,2,.48,3.93.86,5.89Z"/><path d="M99.94,199.79l-4.56,1.65,2,5.48,3.45-1.24C100.42,203.72,100.14,201.75,99.94,199.79Z"/><path d="M109.76,224.14l-2,.73q1.44,2.63,3.1,5.08l.89-.32Z"/><path d="M104.28,226.12l2,5.48,4.6-1.66q-1.65-2.45-3.1-5.08Z"/><g id="Layer_2" data-name="Layer 2"><path d="M247.3,181.43A82.89,82.89,0,1,0,236.36,236,82,82,0,0,0,247.3,181.43ZM126,258.72a76.33,76.33,0,1,1,104.75-26.13A76.33,76.33,0,0,1,126,258.72Z"/><path d="M294.25,174.6A130.33,130.33,0,1,0,277,260.39,128.93,128.93,0,0,0,294.25,174.6ZM103.44,296.13A120,120,0,1,1,268.15,255,120,120,0,0,1,103.44,296.13Z"/><path d="M211,117.19a9.27,9.27,0,1,0-3.17-12.72h0A9.28,9.28,0,0,0,211,117.19ZM217.11,107a2.67,2.67,0,1,1-3.67.91h0A2.67,2.67,0,0,1,217.11,107Z"/><path d="M119.56,269.36a9.27,9.27,0,1,0,3.17,12.72h0A9.28,9.28,0,0,0,119.56,269.36Zm-6.15,10.23a2.67,2.67,0,1,1,3.67-.91h0A2.67,2.67,0,0,1,113.41,279.59Z"/><path d="M255.6,177.49a9.26,9.26,0,1,0-4.22-5.7A9.26,9.26,0,0,0,255.6,177.49ZM259.72,167a2.67,2.67,0,1,1-1.94,3.24h0a2.66,2.66,0,0,1,1.93-3.23h0Z"/><path d="M67.91,208a9.27,9.27,0,1,0,11.24,6.75h0A9.28,9.28,0,0,0,67.91,208Zm2.89,11.58a2.67,2.67,0,1,1,1.94-3.24h0a2.67,2.67,0,0,1-1.94,3.23Z"/><path d="M244.52,251.69A9.27,9.27,0,1,0,241.34,239h0A9.28,9.28,0,0,0,244.52,251.69Zm6.15-10.23a2.67,2.67,0,1,1-3.67.91h0A2.67,2.67,0,0,1,250.66,241.46Z"/><path d="M86,134.86a9.27,9.27,0,1,0,3.17,12.72h0A9.28,9.28,0,0,0,86,134.86Zm-6.15,10.23a2.67,2.67,0,1,1,3.67-.91h0A2.67,2.67,0,0,1,79.86,145.09Z"/><path d="M186.74,279.39A9.27,9.27,0,1,0,198,286.14h0A9.28,9.28,0,0,0,186.74,279.39ZM189.63,291a2.67,2.67,0,1,1,1.94-3.24h0a2.67,2.67,0,0,1-1.94,3.23Z"/><path d="M136.77,106.11a9.26,9.26,0,1,0-4.22-5.7A9.26,9.26,0,0,0,136.77,106.11Zm4.13-10.53A2.67,2.67,0,1,1,139,98.82h0a2.66,2.66,0,0,1,1.93-3.23h0Z"/></g><path class="cls-2" d="M292,309.83s33.1-30,52-59.37c32.14-49.83-4.19-63.64-21-30.43-52,102.55-67.16,62.6-65.74,60.07"/><rect x="270.42" y="292.22" width="30.32" height="55.12" rx="10.49" ry="10.49" transform="translate(261.4 747.84) rotate(-135)"/></svg>