<svg id="Layer_1" data-name="Layer 1" xmlns="http://www.w3.org/2000/svg" viewBox="0 0 400 400"><defs><style>.cls-1,.cls-2{fill:none;stroke:#000;stroke-miterlimit:10;}.cls-1{stroke-width:11px;}.cls-2{stroke-width:7px;}</style></defs><title>diaper</title><path class="cls-1" d="M82.83,83h91a10.71,10.71,0,0,1,10.7,11.2l-1,22.77a10.71,10.71,0,0,0,10.7,11.2H330.07c8.79,0,17.22,16.54,12,23.61,0,0-14.37,45.16-45.16,86.21s-49.26,59.53-49.26,59.53c-5.16,7-41,19.5-49.71,19.5H96.38a10.69,10.69,0,0,1-10.66-9.84l-23.8-124.7a31.47,31.47,0,0,1,8.76-28.26l12-11.93a14.44,14.44,0,0,0,3.14-15.85l-12.17-29c-2.62-6.26,1.3-13.65,8.05-14.33A10.82,10.82,0,0,1,82.83,83Z"/><path class="cls-2" d="M278.85,158H253.32c-2.35,0-4.26,1.49-4.26,3.34s1.9,3.34,4.26,3.34h25.53c2.35,0,4.26-1.49,4.26-3.34S281.2,158,278.85,158Z"/><path class="cls-2" d="M278.85,183.54H125.67c-2.35,0-4.26,1.49-4.26,3.34s1.9,3.34,4.26,3.34H278.85c2.35,0,4.26-1.49,4.26-3.34S281.2,183.54,278.85,183.54Z"/></svg>