<svg id="Layer_1" data-name="Layer 1" xmlns="http://www.w3.org/2000/svg" viewBox="0 0 400 400"><defs><style>.cls-1{fill:none;}</style></defs><title>grill</title><rect class="cls-1" x="250.32" y="126.79" width="23.83" height="23.83" transform="translate(-9.76 20.28) rotate(-4.35)"/><rect class="cls-1" x="287.84" y="216.13" width="23.83" height="23.83" transform="translate(-16.42 23.38) rotate(-4.35)"/><path class="cls-1" d="M311.66,137.57l.71,9.28,9.27-.7A77.13,77.13,0,0,0,311.66,137.57Z"/><path class="cls-1" d="M281.81,149.17l23.76-1.81L304.48,133a76.35,76.35,0,0,0-20.21-7.88l-4.27.32Z"/><rect class="cls-1" x="316.07" y="183.25" width="23.83" height="23.83" transform="translate(-13.85 25.42) rotate(-4.35)"/><path class="cls-1" d="M252,250.46l-23.76,1.81,1.09,14.37a76.34,76.34,0,0,0,20.38,7.9l4.1-.31Z"/><path class="cls-1" d="M220.7,153.82,244.47,152l-1.81-23.76-4.34.33a76.35,76.35,0,0,0-18.72,10.79Z"/><rect class="cls-1" x="257.29" y="218.45" width="23.83" height="23.83" transform="translate(-16.69 21.07) rotate(-4.35)"/><rect class="cls-1" x="193.86" y="192.54" width="23.83" height="23.83" transform="translate(-14.91 16.19) rotate(-4.35)"/><path class="cls-1" d="M222.1,262l-.7-9.26-9.27.71A77.13,77.13,0,0,0,222.1,262Z"/><path class="cls-1" d="M312.88,153.64l1.81,23.76,23.76-1.81-.31-4.11a76.35,76.35,0,0,0-10.88-18.93Z"/><rect class="cls-1" x="259.61" y="249.01" width="23.83" height="23.83" transform="translate(-19 21.33) rotate(-4.35)"/><path class="cls-1" d="M204.57,155l9.34-.71L213.2,145A77.14,77.14,0,0,0,204.57,155Z"/><path class="cls-1" d="M220.88,246l-1.81-23.76L195.31,224l.32,4.25a76.36,76.36,0,0,0,10.85,18.8Z"/><path class="cls-1" d="M320.54,254.44A77.23,77.23,0,0,0,329,244.6l-9.15.7Z"/><path class="cls-1" d="M313.06,245.81l-23.76,1.81,1.81,23.76,3.94-.3a76.45,76.45,0,0,0,19.11-11Z"/><rect class="cls-1" x="254.96" y="187.9" width="23.83" height="23.83" transform="translate(-14.38 20.8) rotate(-4.35)"/><path class="cls-1" d="M216.24,184.89l-1.81-23.76L200,162.22a76.35,76.35,0,0,0-7.84,20.14l.33,4.33Z"/><path class="cls-1" d="M317.52,214.74l1.81,23.76,14.28-1.09a76.45,76.45,0,0,0,8-20.54l-.3-3.94Z"/><rect class="cls-1" x="252.64" y="157.35" width="23.83" height="23.83" transform="translate(-12.07 20.54) rotate(-4.35)"/><rect class="cls-1" x="285.52" y="185.58" width="23.83" height="23.83" transform="translate(-14.11 23.11) rotate(-4.35)"/><rect class="cls-1" x="224.41" y="190.22" width="23.83" height="23.83" transform="translate(-14.64 18.5) rotate(-4.35)"/><rect class="cls-1" x="226.73" y="220.77" width="23.83" height="23.83" transform="translate(-16.95 18.76) rotate(-4.35)"/><rect class="cls-1" x="283.19" y="155.02" width="23.83" height="23.83" transform="translate(-11.81 22.85) rotate(-4.35)"/><rect class="cls-1" x="222.09" y="159.67" width="23.83" height="23.83" transform="translate(-12.33 18.23) rotate(-4.35)"/><path d="M314.14,260.09a76.45,76.45,0,0,1-19.11,11l17-1.29c.92-.59,1.83-1.19,2.73-1.83Z"/><path d="M219.6,139.37a76.35,76.35,0,0,1,18.72-10.79l-16.57,1.26c-.92.59-1.83,1.19-2.73,1.83Z"/><path d="M206.49,247.09a76.36,76.36,0,0,1-10.85-18.8l1.27,16.66c.59.92,1.19,1.83,1.83,2.73Z"/><path d="M327.25,152.55a76.35,76.35,0,0,1,10.88,18.93l-1.28-16.87q-.87-1.35-1.8-2.66Z"/><path d="M303.89,125.19c-1-.48-2-.93-3-1.38l-16.67,1.27A76.35,76.35,0,0,1,304.48,133Z"/><path d="M192.26,162.81c-.48,1-.93,2-1.38,3l1.26,16.6A76.35,76.35,0,0,1,200,162.22Z"/><path d="M229.87,274.44c1,.48,2,.93,3,1.38l16.83-1.28a76.34,76.34,0,0,1-20.38-7.9Z"/><path d="M242.12,121.12l6.79-.52,0,.34,23.76-1.81,0-.34,6.79-.52,0,.34,4.33-.33a83.56,83.56,0,0,0-46.08,3.5l4.41-.34Z"/><path d="M341.45,236.83c.49-1,1-2,1.43-3l-1.29-17a76.45,76.45,0,0,1-8,20.54Z"/><path d="M321.63,146.14l8.38-.64c-.92-1.06-1.86-2.11-2.84-3.13A83.43,83.43,0,0,0,311,129.18l.64,8.39A77.13,77.13,0,0,1,321.63,146.14Z"/><path d="M213.2,145l-.63-8.3q-1.59,1.37-3.13,2.83a83.43,83.43,0,0,0-13.2,16.16l8.32-.63A77.14,77.14,0,0,1,213.2,145Z"/><path d="M188.18,224.58l-.52-6.79.34,0L186.2,194l-.34,0-.52-6.79.34,0-.33-4.32a83.56,83.56,0,0,0,3.5,46.08l-.34-4.41Z"/><path d="M291.64,278.51l-6.79.52,0-.34-23.76,1.81,0,.34-6.79.52,0-.34-4.33.33a83.56,83.56,0,0,0,46.09-3.5l-4.42.34Z"/><path d="M212.12,253.49l-8.37.64q1.37,1.59,2.83,3.13a83.43,83.43,0,0,0,16.16,13.2L222.1,262A77.13,77.13,0,0,1,212.12,253.49Z"/><path d="M320.54,254.44l.65,8.5q1.59-1.37,3.13-2.83A83.19,83.19,0,0,0,337.46,244l-8.46.64A77.23,77.23,0,0,1,320.54,254.44Z"/><path d="M345.58,175.05l.52,6.79-.34,0,1.81,23.76.34,0,.52,6.79-.34,0,.33,4.34a83.22,83.22,0,0,0,1.51-23.31,82.34,82.34,0,0,0-5-22.86l.34,4.49Z"/><path d="M194.11,224.13q.7,2.11,1.52,4.16l-.32-4.25Z"/><path d="M192.14,182.36c-.34,1.46-.63,2.94-.89,4.43l1.22-.09Z"/><path d="M191.26,186.78c.25-1.49.55-3,.89-4.43l-1.26-16.6a83.06,83.06,0,0,0-5.53,17.12l.33,4.32Z"/><path d="M190.37,205.58a77.24,77.24,0,0,1,0-11.9l-4.19.32L188,217.76l4.21-.32A77.24,77.24,0,0,1,190.37,205.58Z"/><path d="M195.63,228.29q-.82-2-1.52-4.16l-5.59.42.34,4.41a82.65,82.65,0,0,0,8,16Z"/><rect x="219.97" y="221.94" width="6.81" height="23.83" transform="translate(-17.08 17.6) rotate(-4.35)"/><path d="M222.1,262a76.92,76.92,0,0,0,7.18,4.59l-1.09-14.37-6.79.52Z"/><path d="M213.91,154.33l6.79-.52-1.1-14.45a77,77,0,0,0-6.4,5.62Z"/><rect x="217.65" y="191.38" width="6.81" height="23.83" transform="translate(-14.77 17.34) rotate(-4.35)"/><rect x="215.32" y="160.83" width="6.81" height="23.83" transform="translate(-12.46 17.08) rotate(-4.35)"/><path d="M222.74,270.45q3.49,2.18,7.13,4l-.59-7.8A76.92,76.92,0,0,1,222.1,262Z"/><path d="M219.6,139.37l-.59-7.7q-3.31,2.33-6.45,5l.63,8.3A77,77,0,0,1,219.6,139.37Z"/><rect x="248.2" y="189.06" width="6.81" height="23.83" transform="translate(-14.51 19.65) rotate(-4.35)"/><rect x="245.88" y="158.51" width="6.81" height="23.83" transform="translate(-12.2 19.39) rotate(-4.35)"/><rect x="252.84" y="250.17" width="6.81" height="23.83" transform="translate(-19.13 20.18) rotate(-4.35)"/><rect x="250.52" y="219.61" width="6.81" height="23.83" transform="translate(-16.82 19.91) rotate(-4.35)"/><rect x="243.55" y="127.95" width="6.81" height="23.83" transform="translate(-9.89 19.12) rotate(-4.35)"/><rect x="254.28" y="280.75" width="6.81" height="0.34" transform="translate(-20.55 20.34) rotate(-4.35)"/><rect x="242.12" y="120.86" width="6.81" height="0.34" transform="translate(-8.47 18.96) rotate(-4.35)"/><rect x="278.75" y="186.74" width="6.81" height="23.83" transform="translate(-14.25 21.96) rotate(-4.35)"/><rect x="283.4" y="247.84" width="6.81" height="23.83" transform="translate(-18.86 22.49) rotate(-4.35)"/><rect x="276.43" y="156.18" width="6.81" height="23.83" transform="translate(-11.94 21.7) rotate(-4.35)"/><rect x="274.11" y="125.63" width="6.81" height="23.83" transform="translate(-9.63 21.43) rotate(-4.35)"/><rect x="281.07" y="217.29" width="6.81" height="23.83" transform="translate(-16.56 22.22) rotate(-4.35)"/><rect x="284.83" y="278.43" width="6.81" height="0.34" transform="translate(-20.29 22.65) rotate(-4.35)"/><rect x="272.67" y="118.54" width="6.81" height="0.34" transform="matrix(1, -0.08, 0.08, 1, -8.2, 21.27)"/><path d="M319.85,245.3l-6.79.52,1.09,14.28a77.05,77.05,0,0,0,6.4-5.65Z"/><rect x="306.98" y="153.86" width="6.81" height="23.83" transform="translate(-11.67 24) rotate(-4.35)"/><path d="M311.66,137.57a76.93,76.93,0,0,0-7.18-4.6l1.09,14.4,6.79-.52Z"/><rect x="311.63" y="214.97" width="6.81" height="23.83" transform="translate(-16.29 24.53) rotate(-4.35)"/><rect x="309.31" y="184.42" width="6.81" height="23.83" transform="translate(-13.98 24.27) rotate(-4.35)"/><path d="M314.14,260.09l.6,7.88q3.31-2.33,6.45-5l-.65-8.5A77.05,77.05,0,0,1,314.14,260.09Z"/><path d="M311,129.18q-3.49-2.18-7.13-4l.59,7.77a76.93,76.93,0,0,1,7.18,4.6Z"/><path d="M339.59,175.51c-.45-1.36-.93-2.71-1.46-4l.31,4.11Z"/><path d="M341.59,216.88c.31-1.33.57-2.67.8-4l-1.1.08Z"/><path d="M343.3,194a77.33,77.33,0,0,1,0,12l4.29-.33-1.81-23.76-4.27.32A77.24,77.24,0,0,1,343.3,194Z"/><path d="M338.14,171.48c.52,1.32,1,2.67,1.46,4l5.65-.43-.34-4.49a82.37,82.37,0,0,0-8-16Z"/><path d="M342.39,212.85c-.23,1.35-.5,2.7-.8,4l1.29,17a83.31,83.31,0,0,0,5.53-17.1l-.33-4.34Z"/><path d="M284.27,125.08q-2.16-.5-4.36-.88l.09,1.2Z"/><path d="M242.57,127q-2.15.72-4.25,1.55l4.34-.33Z"/><path d="M279.91,124.21q2.2.38,4.36.88l16.67-1.27a83.06,83.06,0,0,0-17.12-5.53l-4.33.33Z"/><path d="M238.32,128.58q2.09-.84,4.25-1.55l-.42-5.57-4.41.34a82.65,82.65,0,0,0-16,8Z"/><path d="M261,123.31a77.23,77.23,0,0,1,12,0l-.32-4.2-23.76,1.81.32,4.19A77.25,77.25,0,0,1,261,123.31Z"/><path d="M249.45,127.73l-.2-2.6c-2.27.53-4.5,1.17-6.68,1.9l.09,1.22Z"/><path d="M248.93,120.94l-6.79.52.42,5.57c2.18-.73,4.41-1.36,6.68-1.9Z"/><path d="M273.21,125.92l6.79-.52-.09-1.2q-3.4-.59-6.89-.87Z"/><path d="M279.91,124.21l-.42-5.59-6.79.52.32,4.2Q276.51,123.61,279.91,124.21Z"/><rect x="282.03" y="148.26" width="23.83" height="6.81" transform="translate(-10.65 22.72) rotate(-4.35)"/><rect x="220.93" y="152.9" width="23.83" height="6.81" transform="translate(-11.18 18.1) rotate(-4.35)"/><path d="M204.57,155a77,77,0,0,0-4.59,7.18l14.45-1.1-.52-6.79Z"/><path d="M312.36,146.85l.52,6.79,14.37-1.09a77,77,0,0,0-5.62-6.4Z"/><rect x="251.48" y="150.58" width="23.83" height="6.81" transform="translate(-10.91 20.41) rotate(-4.35)"/><path d="M196.24,155.68q-2.18,3.48-4,7.13l7.72-.59a77,77,0,0,1,4.59-7.18Z"/><path d="M327.25,152.55l7.8-.59q-2.35-3.33-5-6.45l-8.38.64A77,77,0,0,1,327.25,152.55Z"/><rect x="214.16" y="154.06" width="6.81" height="6.81" transform="translate(-11.31 16.94) rotate(-4.35)"/><rect x="244.72" y="151.74" width="6.81" height="6.81" transform="translate(-11.05 19.25) rotate(-4.35)"/><rect x="275.27" y="149.42" width="6.81" height="6.81" transform="translate(-10.78 21.56) rotate(-4.35)"/><rect x="305.82" y="147.1" width="6.81" height="6.81" transform="translate(-10.52 23.87) rotate(-4.35)"/><rect x="314.91" y="176.49" width="23.83" height="6.81" transform="translate(-12.7 25.29) rotate(-4.35)"/><rect x="253.8" y="181.13" width="23.83" height="6.81" transform="translate(-13.22 20.67) rotate(-4.35)"/><rect x="284.36" y="178.81" width="23.83" height="6.81" transform="translate(-12.96 22.98) rotate(-4.35)"/><rect x="223.25" y="183.46" width="23.83" height="6.81" transform="translate(-13.49 18.36) rotate(-4.35)"/><rect x="192.7" y="185.78" width="23.83" height="6.81" transform="translate(-13.75 16.05) rotate(-4.35)"/><rect x="345.5" y="175.06" width="0.34" height="6.81" transform="translate(-12.53 26.71) rotate(-4.35)"/><rect x="185.6" y="187.21" width="0.34" height="6.81" transform="translate(-13.91 14.63) rotate(-4.35)"/><path d="M193,193.48l-.52-6.79-1.22.09c-.39,2.27-.68,4.57-.87,6.89Z"/><path d="M191.26,186.78l-5.57.42.52,6.79,4.19-.32C190.57,191.35,190.87,189.05,191.26,186.78Z"/><rect x="216.48" y="184.62" width="6.81" height="6.81" transform="translate(-13.62 17.21) rotate(-4.35)"/><rect x="247.04" y="182.3" width="6.81" height="6.81" transform="translate(-13.36 19.52) rotate(-4.35)"/><rect x="277.59" y="179.97" width="6.81" height="6.81" transform="translate(-13.09 21.83) rotate(-4.35)"/><rect x="308.14" y="177.65" width="6.81" height="6.81" transform="translate(-12.83 24.14) rotate(-4.35)"/><path d="M339,182.38l2.52-.19c-.53-2.27-1.17-4.5-1.9-6.68l-1.14.09Z"/><path d="M345.75,181.87l-.52-6.79-5.65.43c.73,2.18,1.36,4.41,1.9,6.68Z"/><rect x="286.68" y="209.36" width="23.83" height="6.81" transform="translate(-15.27 23.25) rotate(-4.35)"/><rect x="256.13" y="211.69" width="23.83" height="6.81" transform="translate(-15.53 20.94) rotate(-4.35)"/><rect x="317.23" y="207.04" width="23.83" height="6.81" transform="translate(-15 25.55) rotate(-4.35)"/><rect x="195.02" y="216.33" width="23.83" height="6.81" transform="translate(-16.06 16.32) rotate(-4.35)"/><rect x="225.57" y="214.01" width="23.83" height="6.81" transform="translate(-15.8 18.63) rotate(-4.35)"/><rect x="187.92" y="217.76" width="0.34" height="6.81" transform="translate(-16.22 14.89) rotate(-4.35)"/><rect x="347.82" y="205.61" width="0.34" height="6.81" transform="translate(-14.84 26.98) rotate(-4.35)"/><path d="M194.8,217.25l-2.58.2q.8,3.41,1.9,6.68l1.2-.09Z"/><path d="M188,217.76l.52,6.79,5.59-.42q-1.09-3.28-1.9-6.68Z"/><rect x="218.81" y="215.17" width="6.81" height="6.81" transform="translate(-15.93 17.47) rotate(-4.35)"/><rect x="249.36" y="212.85" width="6.81" height="6.81" transform="translate(-15.66 19.78) rotate(-4.35)"/><rect x="279.91" y="210.53" width="6.81" height="6.81" transform="translate(-15.4 22.09) rotate(-4.35)"/><rect x="310.47" y="208.2" width="6.81" height="6.81" transform="translate(-15.14 24.4) rotate(-4.35)"/><path d="M340.77,206.15l.52,6.79,1.1-.08q.59-3.4.88-6.9Z"/><path d="M342.39,212.85l5.69-.43-.52-6.79-4.29.33Q343,209.45,342.39,212.85Z"/><rect x="258.45" y="242.24" width="23.83" height="6.81" transform="translate(-17.84 21.2) rotate(-4.35)"/><path d="M329,244.6a77,77,0,0,0,4.61-7.18l-14.28,1.09.52,6.79Z"/><rect x="289" y="239.92" width="23.83" height="6.81" transform="translate(-17.58 23.51) rotate(-4.35)"/><path d="M221.4,252.78l-.52-6.79-14.4,1.09a77,77,0,0,0,5.64,6.4Z"/><rect x="227.9" y="244.56" width="23.83" height="6.81" transform="translate(-18.11 18.89) rotate(-4.35)"/><path d="M206.49,247.09l-7.76.59q2.33,3.31,5,6.45l8.37-.64A77,77,0,0,1,206.49,247.09Z"/><path d="M329,244.6l8.46-.64q2.17-3.47,4-7.13l-7.85.6A77,77,0,0,1,329,244.6Z"/><rect x="221.13" y="245.72" width="6.81" height="6.81" transform="translate(-18.24 17.74) rotate(-4.35)"/><rect x="251.68" y="243.4" width="6.81" height="6.81" transform="translate(-17.97 20.05) rotate(-4.35)"/><rect x="282.24" y="241.08" width="6.81" height="6.81" transform="translate(-17.71 22.35) rotate(-4.35)"/><rect x="312.79" y="238.76" width="6.81" height="6.81" transform="translate(-17.45 24.66) rotate(-4.35)"/><path d="M291.18,272.48c1.3-.44,2.59-.9,3.85-1.4l-3.94.3Z"/><path d="M249.66,274.53c1.38.32,2.78.59,4.19.83l-.09-1.14Z"/><path d="M253.84,275.36c-1.41-.24-2.8-.51-4.19-.83l-16.83,1.28a83.07,83.07,0,0,0,17.12,5.53l4.33-.33Z"/><path d="M272.64,276.24a77.25,77.25,0,0,1-11.9,0l.32,4.27,23.76-1.81-.33-4.3A77.32,77.32,0,0,1,272.64,276.24Z"/><path d="M295,271.08c-1.27.5-2.55,1-3.85,1.4l.43,5.69,4.42-.34a82.65,82.65,0,0,0,16-8Z"/><path d="M260.55,273.71l-6.79.52.09,1.14c2.27.39,4.57.68,6.89.87Z"/><path d="M253.84,275.36l.43,5.65,6.79-.52-.32-4.27C258.41,276,256.11,275.75,253.84,275.36Z"/><path d="M284.31,271.9l.19,2.49q3.41-.81,6.68-1.91l-.08-1.1Z"/><path d="M284.83,278.69l6.79-.52-.43-5.69q-3.28,1.1-6.68,1.91Z"/><path class="cls-1" d="M47.25,233.14a10.18,10.18,0,0,0-8,10v41.93a10.25,10.25,0,0,0,10.2,10.23l180.46.46a102.76,102.76,0,0,1-61.48-125.64C139.51,200.09,98.33,221.62,47.25,233.14Z"/><path d="M178,148.29q3.92-5.35,7.37-11"/><path d="M187.1,135l5.58,3.28c-.56,1-1.14,1.89-1.72,2.83a95.88,95.88,0,1,1-7.31,10.9,171.83,171.83,0,0,1-15.2,18.06,102.76,102.76,0,0,0,61.48,125.64l32.68.08,0,6.7c1.42.06,2.85.11,4.28.11A102.82,102.82,0,1,0,187.1,135Z"/><path d="M49.47,295.28a10.25,10.25,0,0,1-10.2-10.23V243.13a10.18,10.18,0,0,1,8-10c51.08-11.53,92.26-33.05,121.2-63A102.24,102.24,0,0,1,178,148.29c-27.84,38-73.18,64.89-132.21,78.22a17,17,0,0,0-13.3,16.62v41.93a17.07,17.07,0,0,0,17,17l213.15.55v-.11a102.12,102.12,0,0,1-32.66-6.78Z"/><path d="M185.33,137.29c.58-.76,1.17-1.51,1.77-2.25"/><path d="M191,141.15a96.35,96.35,0,0,0-7.31,10.9"/><path d="M183.65,152.05a96.35,96.35,0,0,1,7.31-10.9c.58-.94,1.16-1.88,1.72-2.83L187.1,135c-.6.74-1.19,1.49-1.77,2.25q-3.45,5.64-7.37,11a102.24,102.24,0,0,0-9.51,21.82A171.83,171.83,0,0,0,183.65,152.05Z"/><path d="M229.93,295.74a102.12,102.12,0,0,0,32.66,6.78l0-6.7Z"/></svg>