<svg id="Layer_1" data-name="Layer 1" xmlns="http://www.w3.org/2000/svg" viewBox="0 0 400 400"><title>lamp</title><path d="M223,368H181c-9.8,0-21-8.4-21-25.2V313.4c0-14-7-26.6-18.2-36.4-25.2-19.6-37.8-47.6-37.8-78.4,1.4-53.2,44.8-95.2,96.6-96.6,26.6,0,51.8,9.8,70,28S300,173.4,300,200c0,29.4-12.6,57.4-36.4,75.6C251,285.4,244,300.8,244,314.8V347c0,11.2-9.8,21-21,21ZM202,116c-44.8,0-82.6,37.8-84,82.6,0,26.6,11.2,51.8,32.2,67.2,15.4,12.6,23.8,29.4,23.8,47.6v29.4c0,2.8,0,11.2,7,11.2h42a6.61,6.61,0,0,0,7-7V314.8c0-18.2,9.8-37.8,25.2-50.4A81.64,81.64,0,0,0,286,200c0-22.4-8.4-43.4-25.2-60.2C245.4,124.4,224.4,116,202,116Z"/><path d="M237,326H167a7,7,0,0,1,0-14h70a7,7,0,0,1,0,14Z"/><path d="M202,74a6.61,6.61,0,0,1-7-7V39a7,7,0,1,1,14,0V67A6.61,6.61,0,0,1,202,74Z"/><path d="M295.8,113.2c-1.4,0-4.2,0-5.6-1.4a6.77,6.77,0,0,1,0-9.8l19.6-19.6a6.93,6.93,0,0,1,9.8,9.8L300,111.8a14.1,14.1,0,0,1-4.2,1.4Z"/><path d="M363,207H335a7,7,0,0,1,0-14h28a7,7,0,1,1,0,14Z"/><path d="M315.4,320.4c-1.4,0-4.2,0-5.6-1.4l-19.6-19.6a6.93,6.93,0,0,1,9.8-9.8l19.6,19.6a6.77,6.77,0,0,1,0,9.8c0,1.4-1.4,1.4-4.2,1.4Z"/><path d="M88.6,320.4c-1.4,0-4.2,0-5.6-1.4a6.77,6.77,0,0,1,0-9.8l19.6-19.6a6.93,6.93,0,0,1,9.8,9.8L92.8,319A5.14,5.14,0,0,1,88.6,320.4Z"/><path d="M69,207H41a7,7,0,1,1,0-14H69a7,7,0,1,1,0,14Z"/><path d="M108.2,113.2c-1.4,0-4.2,0-5.6-1.4L83,90.8A6.93,6.93,0,0,1,92.8,81l19.6,19.6a6.77,6.77,0,0,1,0,9.8c-1.4,1.4-2.8,2.8-4.2,2.8Z"/><path d="M258,207a6.61,6.61,0,0,1-7-7c0-26.6-22.4-49-49-49a7,7,0,0,1,0-14,62.74,62.74,0,0,1,63,63A6.61,6.61,0,0,1,258,207Z"/></svg>