<svg id="a5b7bc94-81c2-4060-80ea-afc624785856" data-name="IAC" xmlns="http://www.w3.org/2000/svg" viewBox="0 0 400 400"><title>swb</title><path d="M268.68,206.51H229.83a6.47,6.47,0,0,0,0,12.95h38.85a6.47,6.47,0,0,0,0-12.95Z"/><path d="M317,172l-94-94A71,71,0,0,0,172.35,57H99.9A23.86,23.86,0,0,0,76.07,80.83v257.4A4.77,4.77,0,0,0,80.83,343H221.15a33.37,33.37,0,0,0,29.29-17.39,140.39,140.39,0,0,1,56.1-56.1,33.37,33.37,0,0,0,17.39-29.29V188.83A23.67,23.67,0,0,0,317,172Zm-2.55,68.24A23.83,23.83,0,0,1,302,261.15a149.8,149.8,0,0,0-59.9,59.9,23.83,23.83,0,0,1-20.93,12.42H85.6V80.83a14.3,14.3,0,0,1,14.3-14.3h72.45a61.57,61.57,0,0,1,43.82,18.15l94,94a14.4,14.4,0,0,1,4.19,10.11Z" stroke="#000" stroke-miterlimit="10" stroke-width="2"/><path d="M273.18,170.45l-73-73a44.15,44.15,0,0,0-31.43-13H116.79a12.12,12.12,0,0,0-12.12,12.12v76.77a4,4,0,0,0,4,4H270.32a4,4,0,0,0,2.86-6.9Zm-63.46-1.18h-97V96.54a4,4,0,0,1,4-4h51.95a36.12,36.12,0,0,1,25.71,10.65l15.26,15.26Zm8.08,0V126.5l42.77,42.77Z" stroke="#000" stroke-miterlimit="10" stroke-width="2"/></svg>
