<svg id="Layer_1" data-name="Layer 1" xmlns="http://www.w3.org/2000/svg" viewBox="0 0 400 400"><title>switch</title><path d="M329.72,267.58V133.42A16.44,16.44,0,0,0,313.3,117H89.7a16.44,16.44,0,0,0-16.42,16.42V267.58A16.44,16.44,0,0,0,89.7,284H313.3A16.44,16.44,0,0,0,329.72,267.58ZM319.24,133.42V267.58a6,6,0,0,1-5.94,5.94H206.74v-146H313.3A6,6,0,0,1,319.24,133.42ZM83.76,267.58V133.42a6,6,0,0,1,5.94-5.94H196.26v146H89.7A6,6,0,0,1,83.76,267.58Z"/><path d="M173.2,200.5A33.19,33.19,0,1,0,140,233.69,33.23,33.23,0,0,0,173.2,200.5Zm-55.9,0A22.71,22.71,0,1,1,140,223.21,22.74,22.74,0,0,1,117.3,200.5Z"/><path d="M229.8,200.5a5.24,5.24,0,0,0,5.24,5.24h55.9a5.24,5.24,0,1,0,0-10.48H235A5.24,5.24,0,0,0,229.8,200.5Z"/></svg>